<svg width="64" height="64" viewBox="0 0 64 64" fill="none" xmlns="http://www.w3.org/2000/svg">
<path fill-rule="evenodd" clip-rule="evenodd" d="M27.6384 51.7899C27.3747 51.264 26.7333 51.0507 26.206 51.3131C25.6788 51.5765 25.4653 52.2165 25.7289 52.7445L26.7963 54.8779C26.983 55.2512 27.3598 55.4667 27.7515 55.4667C27.9116 55.4667 28.0749 55.4304 28.2286 55.3547C28.7559 55.0912 28.9693 54.4501 28.7057 53.9232L27.6384 51.7899ZM27.6384 58.1899C27.3747 57.664 26.7333 57.4507 26.206 57.7131C25.6788 57.9765 25.4653 58.6165 25.7289 59.1445L26.7963 61.2779C26.983 61.6512 27.3598 61.8667 27.7515 61.8667C27.9116 61.8667 28.0749 61.8304 28.2286 61.7547C28.7559 61.4912 28.9693 60.8501 28.7057 60.3232L27.6384 58.1899ZM21.2344 47.5232C20.9708 46.9963 20.3304 46.784 19.8021 47.0464C19.2748 47.3099 19.0614 47.9499 19.325 48.4779L20.3923 50.6112C20.5791 50.9845 20.9559 51.2 21.3476 51.2C21.5077 51.2 21.671 51.1637 21.8247 51.088C22.3519 50.8245 22.5654 50.1835 22.3018 49.6565L21.2344 47.5232ZM21.2344 53.9232C20.9708 53.3963 20.3304 53.184 19.8021 53.4464C19.2748 53.7099 19.0614 54.3499 19.325 54.8779L20.3923 57.0112C20.5791 57.3845 20.9559 57.6 21.3476 57.6C21.5077 57.6 21.671 57.5637 21.8247 57.488C22.3519 57.2245 22.5654 56.5835 22.3018 56.0565L21.2344 53.9232ZM34.0423 60.3232C33.7787 59.7973 33.1394 59.5851 32.61 59.8464C32.0827 60.1099 31.8693 60.7499 32.1329 61.2779L33.2002 63.4112C33.387 63.7845 33.7638 64 34.1555 64C34.3156 64 34.4789 63.9637 34.6326 63.888C35.1598 63.6245 35.3733 62.9835 35.1097 62.4565L34.0423 60.3232ZM21.2344 60.3232C20.9708 59.7973 20.3304 59.5851 19.8021 59.8464C19.2748 60.1099 19.0614 60.7499 19.325 61.2779L20.3923 63.4112C20.5791 63.7845 20.9559 64 21.3476 64C21.5077 64 21.671 63.9637 21.8247 63.888C22.3519 63.6245 22.5654 62.9835 22.3018 62.4565L21.2344 60.3232ZM4.09426 14.7211L6.06667 15.5381C6.20009 15.5925 6.33884 15.6192 6.47439 15.6192C6.89385 15.6192 7.2909 15.3707 7.46167 14.9611C7.68687 14.4171 7.42858 13.792 6.88425 13.5669L4.91183 12.7499C4.36643 12.5237 3.74311 12.784 3.51684 13.3269C3.29163 13.8709 3.54992 14.496 4.09426 14.7211ZM25.5891 7.456C25.7225 7.5104 25.8613 7.53707 25.9968 7.53707C26.4163 7.53707 26.8133 7.28853 26.9841 6.87893L27.8006 4.90773C28.0269 4.36373 27.7686 3.73973 27.2232 3.5136C26.6789 3.28747 26.0555 3.54667 25.8293 4.09067L25.0117 6.06187C24.7865 6.60587 25.0448 7.22987 25.5891 7.456ZM13.5753 6.87893C13.7461 7.2896 14.1431 7.53813 14.5626 7.53813C14.6981 7.53813 14.8358 7.51147 14.9703 7.456C15.5146 7.232 15.7729 6.608 15.5477 6.06293L14.7302 4.09067C14.5039 3.54667 13.8806 3.28747 13.3362 3.5136C12.7908 3.73867 12.5325 4.36267 12.7588 4.90773L13.5753 6.87893ZM1.06732 21.3344L5.33662 21.3333C5.92686 21.3333 6.40395 20.8555 6.40395 20.2667C6.40395 19.6779 5.92686 19.2 5.33662 19.2L1.06732 19.2011C0.478162 19.2011 0 19.6789 0 20.2677C0 20.8576 0.478162 21.3344 1.06732 21.3344ZM8.95913 10.4629C9.16725 10.6709 9.44049 10.7755 9.71372 10.7755C9.98696 10.7755 10.2602 10.6709 10.4683 10.4629C10.8856 10.0459 10.8856 9.37067 10.4683 8.95467L7.44886 5.93707C7.03154 5.52 6.35699 5.52 5.93966 5.93707C5.52234 6.35307 5.52234 7.02827 5.93966 7.44533L8.95913 10.4629ZM20.2792 6.4C20.8694 6.4 21.3465 5.9232 21.3465 5.33333V1.06667C21.3465 0.477867 20.8694 0 20.2792 0C19.69 0 19.2118 0.477867 19.2118 1.06667V5.33333C19.2118 5.9232 19.69 6.4 20.2792 6.4ZM30.8457 10.7755C31.1189 10.7755 31.3922 10.6709 31.6003 10.4629L34.6198 7.44533C35.0371 7.02827 35.0371 6.35307 34.6198 5.93707C34.2024 5.52 33.5279 5.52 33.1105 5.93707L30.0911 8.95467C29.6738 9.37067 29.6738 10.0459 30.0911 10.4629C30.2992 10.6709 30.5725 10.7755 30.8457 10.7755ZM9.60913 19.1616C9.6817 19.1765 9.75321 19.184 9.82473 19.184C10.321 19.184 10.765 18.8352 10.8686 18.3307C11.779 13.8901 15.7366 10.6667 20.2792 10.6667C22.3807 10.6677 24.3756 11.3333 26.0491 12.592C26.5209 12.9472 27.1901 12.8512 27.5434 12.3819C27.8988 11.9104 27.8038 11.2416 27.3321 10.8875C25.286 9.34827 22.8472 8.5344 20.2792 8.53333C14.7269 8.53333 9.88983 12.4747 8.77768 17.9029C8.65921 18.48 9.0317 19.0443 9.60913 19.1616ZM33.0871 53.3333H43.7208C47.8407 53.3333 51.1921 49.984 51.1921 45.8667C51.1921 41.7504 47.8407 38.4 43.7208 38.4C39.601 38.4 36.2496 41.7504 36.2496 45.8667C36.2496 46.4565 36.7277 46.9333 37.3169 46.9333C37.9071 46.9333 38.3842 46.4565 38.3842 45.8667C38.3842 42.9259 40.7793 40.5333 43.7208 40.5333C46.6634 40.5333 49.0575 42.9259 49.0575 45.8667C49.0575 48.8075 46.6634 51.2 43.7208 51.2H33.0871C32.4979 51.2 32.0197 51.6779 32.0197 52.2667C32.0197 52.8565 32.4979 53.3333 33.0871 53.3333ZM61.8654 40.5333C61.8654 43.2661 60.8332 45.8645 58.9569 47.8517C58.5524 48.2805 58.5716 48.9557 59.0007 49.36C59.2066 49.5531 59.4703 49.6501 59.7328 49.6501C60.0167 49.6501 60.2996 49.5381 60.5098 49.3163C62.7608 46.9312 64 43.8123 64 40.5333C64 36.384 61.9721 32.4736 58.5748 30.0736C58.0934 29.7312 57.4274 29.8485 57.088 30.3285C56.7475 30.8096 56.8617 31.4752 57.3431 31.8144C60.1747 33.8155 61.8654 37.0752 61.8654 40.5333ZM57.5961 51.2H52.2594C51.6703 51.2 51.1921 51.6779 51.1921 52.2667C51.1921 52.8565 51.6703 53.3333 52.2594 53.3333H57.5961C59.9506 53.3333 61.8654 55.2469 61.8654 57.6C61.8654 59.9531 59.9506 61.8667 57.5961 61.8667C56.4412 61.8667 55.3589 61.4123 54.5488 60.5877C54.1358 60.1675 53.4591 60.1611 53.0396 60.5728C52.618 60.9856 52.6116 61.6608 53.0247 62.0811C54.2393 63.3195 55.8627 64 57.5961 64C61.1278 64 64 61.1296 64 57.6C64 54.0715 61.1278 51.2 57.5961 51.2ZM46.9228 55.4667H39.491C38.9019 55.4667 38.4237 55.9445 38.4237 56.5333C38.4237 57.1232 38.9019 57.6 39.491 57.6H46.9228C48.1001 57.6 49.0575 58.5579 49.0575 59.7333C49.0575 60.9099 48.1001 61.8667 46.9228 61.8667C46.3518 61.8667 45.8149 61.6448 45.4125 61.2416C44.9963 60.8245 44.3207 60.8256 43.9033 61.2395C43.486 61.6565 43.485 62.3317 43.9023 62.7477C44.7081 63.5552 45.7808 64 46.9228 64C49.2773 64 51.1921 62.0864 51.1921 59.7333C51.1921 57.3803 49.2773 55.4667 46.9228 55.4667ZM9.60592 51.2H8.5386C5.00789 51.2 2.13465 48.3296 2.13465 44.8C2.13465 41.2715 5.00789 38.4 8.5386 38.4C9.12883 38.4 9.60592 37.9232 9.60592 37.3333C9.60592 36.7445 9.12883 36.2667 8.5386 36.2667C3.83063 36.2667 0 40.0949 0 44.8C0 49.5051 3.83063 53.3333 8.5386 53.3333H9.60592C11.5474 53.3333 12.9477 53.9253 13.9307 56.8715C14.0791 57.3184 14.4964 57.6 14.9425 57.6C15.0546 57.6 15.1688 57.5829 15.2809 57.5456C15.8402 57.36 16.1422 56.7552 15.9554 56.1963C14.8038 52.7413 12.8453 51.2 9.60592 51.2ZM24.2357 18.2325C23.907 18.7221 24.0372 19.3845 24.5271 19.7131C25.017 20.0416 25.6798 19.9104 26.0086 19.4219C28.7943 15.2757 33.4211 12.8 38.3842 12.8C46.624 12.8 53.3268 19.4997 53.3268 27.7333C53.3268 29.0869 53.1464 30.4267 52.7899 31.7163C52.633 32.2848 52.9671 32.8725 53.5349 33.0283C53.6299 33.0549 53.7259 33.0667 53.8199 33.0667C54.2873 33.0667 54.7175 32.7563 54.8477 32.2848C55.2554 30.8096 55.4614 29.2789 55.4614 27.7333C55.4614 18.3232 47.8012 10.6667 38.3842 10.6667C32.7082 10.6667 27.4196 13.4955 24.2357 18.2325ZM26.3128 24.6773C25.8869 25.0837 25.2113 25.0677 24.8046 24.6421C22.7692 22.5088 20.0252 21.3333 17.0772 21.3333C11.192 21.3333 6.40395 26.1195 6.40395 32C6.40395 32.6571 6.46372 33.312 6.58113 33.9477C6.68893 34.5269 6.30576 35.0837 5.7262 35.1904C5.66002 35.2032 5.59492 35.2085 5.53088 35.2085C5.02603 35.2085 4.57776 34.8491 4.48276 34.336C4.34081 33.5723 4.2693 32.7872 4.2693 32C4.2693 24.9419 10.0158 19.2 17.0772 19.2C20.6143 19.2 23.907 20.6101 26.349 23.1691C26.7557 23.5957 26.7397 24.2709 26.3128 24.6773Z" fill="black"/>
</svg>
