<svg width="77" height="56" viewBox="0 0 77 56" fill="none" xmlns="http://www.w3.org/2000/svg">
<path d="M22.6722 44.46L21.9906 44.6531L20.7907 44.9979C20.5907 45.0566 20.3907 45.1117 20.1925 45.1704L19.5978 45.3635L18.4101 45.7497C15.2518 46.8001 12.1656 48.0529 9.17114 49.5001L8.053 50.0501L6.95574 50.6329C6.58708 50.8209 6.22191 51.0209 5.85847 51.2226C5.49503 51.4244 5.12986 51.621 4.77337 51.8331C4.05346 52.2469 3.34165 52.6757 2.63796 53.1194C2.29018 53.3435 1.94239 53.5734 1.5946 53.8091C1.24682 54.0436 0.909463 54.2781 0.551242 54.5367L0 54.9316L0.763392 55.9938L1.3355 55.6299C1.65894 55.423 2.01021 55.2109 2.35626 55.0092C2.7023 54.8075 3.05183 54.6057 3.41179 54.4109C4.1178 54.0166 4.8354 53.6378 5.56459 53.2746C7.01312 52.5452 8.47383 51.8365 9.96757 51.2054L10.524 50.9623L11.0874 50.7278L12.2108 50.2605C12.9672 49.9674 13.7219 49.6691 14.4818 49.388L15.6208 48.9638C16.0034 48.8259 16.3825 48.6845 16.7703 48.5621L17.9249 48.181L18.5023 47.9896L19.0848 47.8172C20.2742 47.4562 21.47 47.1171 22.6722 46.7998V44.46Z" fill="black"/>
<path d="M76.3636 49.7468C72.6913 47.9155 68.8772 46.3782 64.9579 45.1498L64.1997 47.0103C68.1381 48.0998 72.0004 49.4436 75.7619 51.0331L76.4175 51.3073L77 50.0709L76.3636 49.7468Z" fill="black"/>
<path d="M39.3121 30.169C39.1768 30.0596 39.027 29.9691 38.8669 29.9C38.6729 29.7975 38.465 29.7231 38.2496 29.6793C38.0663 29.6203 37.8754 29.5878 37.6827 29.5828C37.5088 29.9569 37.3036 30.3501 37.0897 30.757C36.8758 31.164 36.6863 31.5416 36.4724 31.933C36.2585 32.3244 36.0446 32.7003 35.8307 33.059C35.6169 33.4176 35.4517 33.7487 35.2865 34.0384C34.3984 35.5247 33.6414 36.6265 33.0154 37.3438C32.3894 38.0611 31.8382 38.4635 31.3617 38.5508C31.1304 38.4698 31.0139 38.2732 31.0139 37.9629C31.0324 37.1272 31.2168 36.3034 31.5565 35.5385C31.919 34.6773 32.3861 33.8631 32.9476 33.1141C33.4922 32.3812 34.1319 31.7226 34.85 31.1553C35.5572 30.6174 36.24 30.2995 36.8985 30.2018C36.8665 30.0147 36.7909 29.8375 36.6776 29.6845C36.537 29.4625 36.3713 29.2571 36.1838 29.0724C36.0057 28.879 35.8069 28.7056 35.5908 28.5551C35.4279 28.4268 35.2437 28.3276 35.0465 28.262C34.3718 28.2941 33.6722 28.6039 32.9476 29.1914C32.1762 29.8141 31.495 30.5394 30.9235 31.3467C30.3093 32.222 29.8037 33.1674 29.4176 34.1625C29.0414 35.0812 28.8403 36.061 28.8246 37.0524C28.8246 37.9008 29.0141 38.6026 29.3932 39.1578C29.5522 39.4089 29.7699 39.6183 30.0278 39.7684C30.2856 39.9184 30.5762 40.0047 30.8748 40.0199C31.3228 39.9232 31.7441 39.7308 32.1094 39.4561C32.6098 39.0941 33.0656 38.6751 33.4675 38.2077C34.4789 37.051 35.3031 35.7457 35.9107 34.3384C35.2859 35.9558 34.9735 37.2295 34.9735 38.1594C34.9735 39.3664 35.418 39.9699 36.3072 39.9699C36.5908 39.9654 36.8725 39.9242 37.1454 39.8475C37.4168 39.7842 37.6759 39.677 37.9123 39.5302C37.672 39.3882 37.4953 39.1607 37.4184 38.894C37.3103 38.5197 37.2599 38.1314 37.2688 37.7421C37.2769 37.2571 37.3269 36.7737 37.4184 36.2972C37.5343 35.7431 37.6902 35.1477 37.8862 34.5108C38.0821 33.874 38.3209 33.213 38.6026 32.5279C38.8832 31.8255 39.188 31.1318 39.5173 30.4466C39.5103 30.3518 39.4443 30.2621 39.3121 30.169Z" fill="black"/>
<path d="M26.7657 29.0862C26.2704 29.0926 25.7759 29.1254 25.2841 29.1844C24.7085 29.25 24.0982 29.331 23.4565 29.4293C23.9202 28.3947 24.2987 27.5458 24.592 26.8825C24.8853 26.2192 25.141 25.6807 25.3589 25.2668C25.5554 24.8427 25.7067 24.515 25.8267 24.2874C25.9467 24.0598 26.0736 23.8702 26.1745 23.7236C26.8005 23.6259 27.459 23.5443 28.1499 23.4787C28.9207 23.394 29.6958 23.3531 30.4714 23.3563C30.7183 23.3563 30.993 23.3563 31.3113 23.3805C31.6295 23.4046 32.0677 23.4305 32.5946 23.4787C32.4802 22.8827 32.2434 22.3163 31.899 21.8148C31.6017 21.4217 31.2643 21.2268 30.8852 21.2268C30.4808 21.2364 30.0773 21.2692 29.6767 21.3251L27.7743 21.4975C27.0509 21.563 26.2359 21.6286 25.3293 21.6941C24.4251 21.7424 23.4542 21.7665 22.4166 21.7665C21.9228 21.7665 21.5193 21.7665 21.1994 21.7424C20.8935 21.7258 20.5888 21.693 20.2864 21.6441C20.1344 21.9309 20.0578 22.2512 20.0639 22.5752C20.0589 22.7979 20.1078 23.0185 20.2064 23.2185C20.305 23.4186 20.4505 23.5924 20.6307 23.7253C21.0785 24.0355 21.617 24.1907 22.1627 24.1667H22.2862C22.1877 24.6564 22.0717 25.1214 21.9384 25.5617C21.8051 26.002 21.6799 26.4422 21.5628 26.8825C21.415 27.3239 21.2498 27.7964 21.069 28.3033C20.8881 28.8103 20.6742 29.3552 20.4273 29.9914C19.8824 30.1225 19.4187 30.2449 19.0361 30.3587C18.6588 30.457 18.4275 30.5466 18.3406 30.6294C18.5539 31.2042 19.0066 31.6065 19.6987 31.8364C19.2535 32.9641 18.5197 34.9695 18.1893 35.7851C17.8589 36.6007 17.605 37.2714 17.3755 37.8422C17.1459 38.4129 16.9477 38.8629 16.7825 39.2371C16.6173 39.6113 16.4782 39.9079 16.3634 40.1682C16.6817 40.7162 17.0935 41.2051 17.5807 41.6132C18.0139 41.9582 18.5205 42.2012 19.0622 42.3236C19.3348 40.797 19.7054 39.2892 20.1717 37.8094C20.6499 36.2903 21.6063 33.6331 22.3471 31.9019C23.0218 31.8215 23.7295 31.7151 24.4703 31.583C25.204 31.454 25.9476 31.3888 26.6927 31.3881C27.0064 31.3852 27.32 31.4013 27.6317 31.4364C27.8943 31.4536 28.1342 31.4778 28.3481 31.5105C28.4 31.4017 28.4335 31.2852 28.4472 31.1657C28.4627 31.0277 28.4708 30.889 28.4716 30.7501C28.4846 30.5248 28.4495 30.2993 28.3686 30.0883C28.2877 29.8773 28.1628 29.6857 28.0021 29.5259C27.8369 29.3732 27.642 29.2555 27.4295 29.1799C27.2169 29.1044 26.9911 29.0724 26.7657 29.0862Z" fill="black"/>
<path d="M49.6292 34.0073C49.8737 33.766 50.0965 33.5041 50.2952 33.2245C50.4453 33.0595 50.5632 32.8683 50.643 32.6606C50.4285 32.302 50.3219 31.7634 50.3231 31.045C50.3283 30.2495 50.4785 29.4614 50.7665 28.7189C50.6592 28.5713 50.5017 28.4672 50.3231 28.4258C50.1101 28.3439 49.8836 28.3024 49.6553 28.3033C49.4725 28.2848 49.2887 28.328 49.1336 28.4258C48.5632 29.2795 47.9185 30.0821 47.2069 30.8243C46.5322 31.5427 45.7502 32.2939 44.8611 33.0779C45.1417 32.202 45.4804 31.3455 45.8749 30.5139C46.2003 29.8751 46.5982 29.2752 47.0608 28.7258C46.9382 28.5918 46.7971 28.4757 46.6417 28.3809C46.4458 28.2429 46.2394 28.1202 46.0244 28.0137C45.7929 27.8993 45.5534 27.8014 45.308 27.7205C45.0748 27.6421 44.835 27.5844 44.5915 27.5481C44.377 27.7666 44.1943 28.0139 44.049 28.2826C43.8343 28.6622 43.6443 29.055 43.4804 29.4586C43.1847 30.1598 42.8804 30.9513 42.5674 31.833C42.2544 32.7147 41.9582 33.5969 41.6788 34.4798C41.3971 35.3454 41.1502 36.1696 40.938 36.9524C40.7259 37.7352 40.5856 38.3531 40.5172 38.806C40.5901 38.9681 40.7003 39.111 40.8389 39.2233C41.0091 39.375 41.1905 39.5139 41.3815 39.6389C41.5782 39.7615 41.7847 39.8682 41.9988 39.9579C42.1697 40.0438 42.3535 40.102 42.5431 40.1303C42.7877 39.0038 43.0427 38.0324 43.3082 37.2162C43.5582 36.4652 43.8894 35.7431 44.2959 35.0626C44.6859 34.4318 45.159 33.8554 45.7027 33.3486C46.3179 32.7673 46.9784 32.2352 47.6781 31.7571C47.8497 32.2405 48.1091 32.6887 48.4433 33.0796C48.7759 33.4604 49.1784 33.7751 49.6292 34.0073Z" fill="black"/>
<path d="M62.7321 50.3795C56.9832 52.7004 58.7621 47.9069 58.7621 47.9069L63.5094 33.4642C60.9532 33.1021 59.0873 37.9697 59.0873 37.9697C57.211 42.6598 55.5729 46.4102 55.2738 50.0553C51.3369 49.4225 56.2789 38.3422 57.5344 35.4574L58.8838 32.083C56.6111 30.0432 53.2427 38.5336 53.2427 38.5336C51.6203 42.7598 49.9162 46.3377 49.8344 49.3311C45.7792 48.1017 53.4253 32.0658 53.4253 32.0658C53.9922 30.9679 54.5371 29.9621 55.0599 29.0482C55.0599 29.0482 59.6159 29.8017 63.4068 23.2925C68.215 14.7573 71.0581 3.35276 71.545 1.37327C72.018 -0.552767 73.9047 -0.00616508 74.8229 0.37318C75.7411 0.752525 77.4452 1.7233 76.3775 3.40104C75.2281 5.20466 68.408 16.0022 65.7874 25.7031C65.4396 27.2067 64.824 30.7036 67.5507 32.7468C65.1005 35.2833 60.6993 48.1241 60.6993 48.1241C60.6993 48.1241 59.2508 50.8313 62.5478 49.9019C62.5478 49.8984 62.7895 49.8932 62.7321 50.3795Z" fill="black"/>
<path d="M26.6475 46.4546H26.1059V43.6509H25.0728L25.1445 43.2681H27.7133L27.6415 43.6509H26.6475V46.4546Z" fill="black"/>
<path d="M29.8707 46.1153C30.0273 46.1153 30.1694 46.0827 30.297 46.0174C30.4246 45.9521 30.5334 45.8637 30.6233 45.752C30.7146 45.6389 30.785 45.507 30.8343 45.3562C30.8836 45.2054 30.9082 45.0444 30.9082 44.8733C30.9082 44.6921 30.8807 44.5246 30.8256 44.3709C30.7719 44.2157 30.6972 44.0816 30.6015 43.9685C30.5058 43.8554 30.3927 43.7669 30.2622 43.7031C30.1317 43.6393 29.9903 43.6074 29.8381 43.6074C29.68 43.6074 29.5372 43.6408 29.4096 43.7075C29.282 43.7742 29.1732 43.8648 29.0833 43.9794C28.9934 44.0925 28.9238 44.2244 28.8745 44.3752C28.8267 44.526 28.8027 44.6863 28.8027 44.8559C28.8027 45.0372 28.8296 45.2046 28.8832 45.3584C28.9369 45.5121 29.0108 45.6447 29.1051 45.7564C29.2008 45.868 29.3139 45.9558 29.4444 46.0196C29.5749 46.0834 29.717 46.1153 29.8707 46.1153ZM29.7967 46.4981C29.6561 46.4981 29.5198 46.4821 29.3878 46.4502C29.2559 46.4169 29.1319 46.3698 29.0159 46.3089C28.9013 46.2465 28.7962 46.1704 28.7005 46.0805C28.6063 45.9906 28.5243 45.8876 28.4547 45.7716C28.3866 45.6556 28.3336 45.528 28.2959 45.3888C28.2582 45.2482 28.2394 45.0973 28.2394 44.9364C28.2394 44.7696 28.2597 44.6116 28.3003 44.4622C28.3409 44.3129 28.3975 44.1751 28.47 44.049C28.5439 43.9228 28.6324 43.809 28.7353 43.7075C28.8383 43.6045 28.9514 43.5175 29.0746 43.4465C29.1993 43.3754 29.3327 43.321 29.4748 43.2833C29.6169 43.2442 29.7648 43.2246 29.9186 43.2246C30.1259 43.2246 30.3231 43.2601 30.5102 43.3312C30.6987 43.4008 30.864 43.503 31.0061 43.6379C31.1482 43.7713 31.2613 43.9344 31.3454 44.1273C31.4295 44.3201 31.4716 44.5391 31.4716 44.7841C31.4716 44.9494 31.4513 45.1068 31.4106 45.2561C31.3715 45.4055 31.3157 45.544 31.2432 45.6716C31.1707 45.7977 31.0837 45.9123 30.9822 46.0152C30.8807 46.1167 30.7676 46.2037 30.6428 46.2762C30.5196 46.3473 30.3862 46.4024 30.2426 46.4415C30.1005 46.4792 29.9519 46.4981 29.7967 46.4981Z" fill="black"/>
<path d="M33.6983 46.4546V43.2681H35.6363L35.5645 43.6509H34.2377V44.6123H35.4123L35.3427 44.9842H34.2377V46.4546H33.6983Z" fill="black"/>
<path d="M38.0199 46.1153C38.1765 46.1153 38.3186 46.0827 38.4462 46.0174C38.5738 45.9521 38.6826 45.8637 38.7725 45.752C38.8638 45.6389 38.9342 45.507 38.9835 45.3562C39.0328 45.2054 39.0574 45.0444 39.0574 44.8733C39.0574 44.6921 39.0299 44.5246 38.9748 44.3709C38.9211 44.2157 38.8464 44.0816 38.7507 43.9685C38.655 43.8554 38.5419 43.7669 38.4114 43.7031C38.2809 43.6393 38.1395 43.6074 37.9873 43.6074C37.8292 43.6074 37.6864 43.6408 37.5588 43.7075C37.4312 43.7742 37.3224 43.8648 37.2325 43.9794C37.1426 44.0925 37.073 44.2244 37.0237 44.3752C36.9759 44.526 36.9519 44.6863 36.9519 44.8559C36.9519 45.0372 36.9788 45.2046 37.0324 45.3584C37.0861 45.5121 37.16 45.6447 37.2543 45.7564C37.35 45.868 37.4631 45.9558 37.5936 46.0196C37.7241 46.0834 37.8662 46.1153 38.0199 46.1153ZM37.946 46.4981C37.8053 46.4981 37.669 46.4821 37.537 46.4502C37.4051 46.4169 37.2811 46.3698 37.1651 46.3089C37.0506 46.2465 36.9454 46.1704 36.8497 46.0805C36.7555 45.9906 36.6735 45.8876 36.6039 45.7716C36.5358 45.6556 36.4829 45.528 36.4452 45.3888C36.4075 45.2482 36.3886 45.0973 36.3886 44.9364C36.3886 44.7696 36.4089 44.6116 36.4495 44.4622C36.4901 44.3129 36.5467 44.1751 36.6192 44.049C36.6931 43.9228 36.7816 43.809 36.8845 43.7075C36.9875 43.6045 37.1006 43.5175 37.2238 43.4465C37.3485 43.3754 37.4819 43.321 37.624 43.2833C37.7661 43.2442 37.9141 43.2246 38.0678 43.2246C38.2751 43.2246 38.4723 43.2601 38.6594 43.3312C38.8479 43.4008 39.0132 43.503 39.1553 43.6379C39.2974 43.7713 39.4105 43.9344 39.4946 44.1273C39.5787 44.3201 39.6208 44.5391 39.6208 44.7841C39.6208 44.9494 39.6005 45.1068 39.5599 45.2561C39.5207 45.4055 39.4649 45.544 39.3924 45.6716C39.3199 45.7977 39.2329 45.9123 39.1314 46.0152C39.0299 46.1167 38.9168 46.2037 38.7921 46.2762C38.6688 46.3473 38.5354 46.4024 38.3918 46.4415C38.2497 46.4792 38.1011 46.4981 37.946 46.4981Z" fill="black"/>
<path d="M41.1713 45.2148V46.4546H40.6319V43.2681H41.6129C41.7869 43.2681 41.9427 43.2906 42.0805 43.3355C42.2197 43.379 42.3372 43.4392 42.4329 43.5161C42.5286 43.5915 42.6018 43.6799 42.6525 43.7814C42.7048 43.8829 42.7309 43.9917 42.7309 44.1077C42.7309 44.2106 42.712 44.3071 42.6743 44.397C42.6366 44.4869 42.5873 44.5703 42.5264 44.6471C42.4655 44.7225 42.3966 44.7914 42.3198 44.8537C42.2444 44.9146 42.169 44.9676 42.0936 45.0125L43.0158 46.4546H42.3785L41.6977 45.2148H41.1713ZM41.1713 44.8429H41.826C41.8797 44.8139 41.929 44.7776 41.9739 44.7341C42.0189 44.6906 42.0573 44.642 42.0892 44.5884C42.1226 44.5333 42.1479 44.4746 42.1653 44.4122C42.1827 44.3498 42.1914 44.2853 42.1914 44.2186C42.1914 44.1389 42.1777 44.0642 42.1501 43.9946C42.1226 43.925 42.0812 43.8648 42.0261 43.8141C41.9725 43.7633 41.9043 43.7234 41.8217 43.6944C41.7405 43.6654 41.6455 43.6509 41.5367 43.6509H41.1713V44.8429Z" fill="black"/>
<path d="M44.4097 46.4546H43.8703V43.2681H44.4097V46.4546ZM45.6604 46.4546L44.3749 44.845L45.654 43.2681H46.214L44.9031 44.7515L46.3349 46.4546H45.6604Z" fill="black"/>
</svg>
