<svg width="64" height="64" viewBox="0 0 64 64" fill="none" xmlns="http://www.w3.org/2000/svg">
<path fill-rule="evenodd" clip-rule="evenodd" d="M32 10.6667C33.1765 10.6667 34.1333 9.70987 34.1333 8.53333C34.1333 7.3568 33.1765 6.4 32 6.4C30.8235 6.4 29.8667 7.3568 29.8667 8.53333C29.8667 9.70987 30.8235 10.6667 32 10.6667ZM25.6 8.53333C25.6 10.7691 27.5552 13.9776 28.5877 15.3611L32 19.6256L35.4336 15.3333C36.4608 14.1579 38.4 10.7381 38.4 8.53333C38.4 5.00373 35.5296 2.13333 32 2.13333C28.4704 2.13333 25.6 5.00373 25.6 8.53333ZM26.9003 16.6667C26.5291 16.1707 23.4667 11.9691 23.4667 8.53333C23.4667 3.82827 27.2949 0 32 0C36.7051 0 40.5333 3.82827 40.5333 8.53333C40.5333 11.472 38.24 15.3653 37.0688 16.7019L32.8331 22C32.6304 22.2528 32.3243 22.4 32 22.4C31.6757 22.4 31.3696 22.2528 31.1669 22L26.9003 16.6667ZM43.7333 58.6667C44.3221 58.6667 44.8 58.1899 44.8 57.6V42.4043L58.96 38.3595C59.5264 38.1973 59.8539 37.6064 59.6917 37.0411C59.5307 36.4736 58.9397 36.1525 58.3733 36.3072L43.44 40.5739C42.9824 40.7051 42.6667 41.1243 42.6667 41.6V57.6C42.6667 58.1899 43.1445 58.6667 43.7333 58.6667ZM39.4667 57.6C40.0555 57.6 40.5333 57.1232 40.5333 56.5333V41.6C40.5333 41.1424 40.2411 40.7349 39.8069 40.5899L24.8736 35.5563C24.3147 35.3653 23.7099 35.6661 23.5221 36.2261C23.3344 36.784 23.6341 37.3899 24.1931 37.5776L38.4 42.3659V56.5333C38.4 57.1232 38.8779 57.6 39.4667 57.6ZM15.6939 28.8448L5.0272 32.0448C4.46293 32.2144 4.14187 32.8096 4.31147 33.3728C4.45013 33.8357 4.8736 34.1333 5.33333 34.1333C5.43467 34.1333 5.53707 34.1184 5.63947 34.0885L16.3061 30.8885C16.8704 30.7189 17.1915 30.1237 17.0219 29.5605C16.8523 28.9963 16.2592 28.6805 15.6939 28.8448ZM20.2667 8.53333C19.6779 8.53333 19.2 9.01013 19.2 9.6V28.8C19.2 29.2597 19.4933 29.6661 19.9296 29.8112L39.1296 36.2112C39.2395 36.2485 39.3536 36.2667 39.4667 36.2667C39.6875 36.2667 39.9061 36.1984 40.0896 36.0661C40.3691 35.8645 40.5333 35.5424 40.5333 35.2V19.2C40.5333 18.6101 40.0555 18.1333 39.4667 18.1333C38.8779 18.1333 38.4 18.6101 38.4 19.2V33.7195L21.3333 28.0309V9.6C21.3333 9.01013 20.8555 8.53333 20.2667 8.53333ZM61.888 9.5008C60.8395 8.6496 59.6224 8.31787 58.3733 8.57387L43.44 12.8405C42.9824 12.9717 42.6667 13.3909 42.6667 13.8667V35.2C42.6667 35.5339 42.8235 35.8496 43.0912 36.0523C43.3568 36.2517 43.7045 36.3179 44.0267 36.2261L58.96 31.9595C59.5264 31.7973 59.8539 31.2064 59.6917 30.6411C59.5307 30.0736 58.9397 29.7493 58.3733 29.9072L44.8 33.7856V14.6709L58.8843 10.6443C59.5957 10.496 60.2283 10.9024 60.5408 11.1563C61.3461 11.8112 61.8667 12.8747 61.8667 13.8667V54.4C61.8667 55.8016 60.8032 56.7776 58.3733 57.6405L43.7728 61.8123L21.3333 53.6533V35.2C21.3333 34.8661 21.1765 34.5504 20.9088 34.3477C20.6421 34.1472 20.2955 34.0832 19.9733 34.1739L5.04 38.4405C4.4736 38.6027 4.14613 39.1936 4.30827 39.7589C4.46933 40.3264 5.06027 40.6475 5.62667 40.4928L19.2 36.6144V54.4C19.2 54.8491 19.4805 55.2491 19.9019 55.4016L43.3685 63.9349C43.4869 63.9776 43.6096 64 43.7333 64C43.8315 64 43.9307 63.9861 44.0267 63.9595L59.0229 59.6715C60.384 59.1893 64 57.9072 64 54.4V13.8667C64 12.2347 63.1904 10.5611 61.888 9.5008ZM17.0219 55.3269C17.1829 55.8923 16.8555 56.4832 16.2891 56.6453L5.62667 59.6928C5.27893 59.7909 4.93013 59.84 4.5824 59.84C3.74827 59.84 2.93227 59.5584 2.21013 59.0123C0.8672 57.9968 0 56.1867 0 54.4V13.8667C0 10.3595 3.616 9.07733 4.97707 8.5952L19.9733 4.3072C20.5397 4.15147 21.1307 4.4736 21.2917 5.04107C21.4539 5.6064 21.1264 6.19733 20.56 6.35947L5.62667 10.6261C3.1968 11.4891 2.13333 12.4651 2.13333 13.8667V54.4C2.13333 55.5061 2.69333 56.704 3.49653 57.3109C3.98613 57.6811 4.5056 57.792 5.0432 57.6405L15.7024 54.5941C16.2688 54.4363 16.8597 54.7605 17.0219 55.3269Z" fill="black"/>
</svg>
