<svg width="64" height="56" viewBox="0 0 64 56" fill="none" xmlns="http://www.w3.org/2000/svg">
<path fill-rule="evenodd" clip-rule="evenodd" d="M42.6667 54.4C42.6667 54.9888 42.1888 55.4667 41.6 55.4667H39.4667C38.8779 55.4667 38.4 54.9888 38.4 54.4C38.4 53.8112 38.8779 53.3333 39.4667 53.3333H41.6C42.1888 53.3333 42.6667 53.8112 42.6667 54.4ZM64 54.4C64 54.9888 63.5221 55.4667 62.9333 55.4667H45.8667C45.2779 55.4667 44.8 54.9888 44.8 54.4C44.8 53.8112 45.2779 53.3333 45.8667 53.3333H62.9333C63.5221 53.3333 64 53.8112 64 54.4ZM34.1333 54.4C34.1333 54.9888 33.6555 55.4667 33.0667 55.4667H22.4C21.8112 55.4667 21.3333 54.9888 21.3333 54.4C21.3333 53.8112 21.8112 53.3333 22.4 53.3333H33.0667C33.6555 53.3333 34.1333 53.8112 34.1333 54.4ZM17.0667 54.4C17.0667 54.9888 16.5888 55.4667 16 55.4667H1.06667C0.477867 55.4667 0 54.9888 0 54.4C0 53.8112 0.477867 53.3333 1.06667 53.3333H16C16.5888 53.3333 17.0667 53.8112 17.0667 54.4ZM2.13333 33.0667C2.13333 32.4779 2.6112 32 3.2 32H6.22933L5.77813 28.9568C5.69173 28.3744 6.09387 27.8315 6.67627 27.7451C7.26293 27.6629 7.80267 28.0608 7.88907 28.6432L8.3872 32H16C16.5888 32 17.0667 32.4779 17.0667 33.0667C17.0667 33.6555 16.5888 34.1333 16 34.1333H3.2C2.6112 34.1333 2.13333 33.6555 2.13333 33.0667ZM3.2 23.4667H4.86293L4.41173 20.4235C4.32533 19.8411 4.72747 19.2981 5.30987 19.2117C5.89653 19.1307 6.43627 19.5275 6.5216 20.1099L7.0208 23.4667H16C16.5888 23.4667 17.0667 23.9445 17.0667 24.5333C17.0667 25.1221 16.5888 25.6 16 25.6H3.2C2.6112 25.6 2.13333 25.1221 2.13333 24.5333C2.13333 23.9445 2.6112 23.4667 3.2 23.4667ZM16 44.8C15.4123 44.8 14.9333 44.3211 14.9333 43.7333C14.9333 43.1456 15.4123 42.6667 16 42.6667C16.5877 42.6667 17.0667 43.1456 17.0667 43.7333C17.0667 44.3211 16.5877 44.8 16 44.8ZM16 40.5333C14.2357 40.5333 12.8 41.9691 12.8 43.7333C12.8 45.4976 14.2357 46.9333 16 46.9333C17.7643 46.9333 19.2 45.4976 19.2 43.7333C19.2 41.9691 17.7643 40.5333 16 40.5333ZM52.2667 44.8C51.6789 44.8 51.2 44.3211 51.2 43.7333C51.2 43.1456 51.6789 42.6667 52.2667 42.6667C52.8544 42.6667 53.3333 43.1456 53.3333 43.7333C53.3333 44.3211 52.8544 44.8 52.2667 44.8ZM52.2667 40.5333C50.5024 40.5333 49.0667 41.9691 49.0667 43.7333C49.0667 45.4976 50.5024 46.9333 52.2667 46.9333C54.0309 46.9333 55.4667 45.4976 55.4667 43.7333C55.4667 41.9691 54.0309 40.5333 52.2667 40.5333ZM52.2667 49.0667C49.3259 49.0667 46.9333 46.6741 46.9333 43.7333C46.9333 40.7925 49.3259 38.4 52.2667 38.4C55.2075 38.4 57.6 40.7925 57.6 43.7333C57.6 46.6741 55.2075 49.0667 52.2667 49.0667ZM62.6208 26.9792L59.6971 24.0555L58.6667 11.7333C58.6667 8.79253 56.2741 6.4 53.3333 6.4H45.8667C45.2779 6.4 44.8 6.87787 44.8 7.46667C44.8 8.05547 45.2779 8.53333 45.8667 8.53333H53.3333C55.0677 8.53333 56.5333 9.99893 56.5365 11.8219L57.5072 23.4667H53.9925L55.3547 20.7435C55.6181 20.2165 55.4037 19.5765 54.8768 19.312C54.3488 19.0485 53.7099 19.2629 53.4453 19.7899L51.6075 23.4667H45.8667C45.2779 23.4667 44.8 23.9445 44.8 24.5333C44.8 25.1221 45.2779 25.6 45.8667 25.6H58.2251L61.1125 28.4875C61.7205 29.0955 61.8645 30.4939 61.8667 30.9333V42.6667H59.648C59.1285 39.0539 56.0213 36.2667 52.2667 36.2667C48.1493 36.2667 44.8 39.616 44.8 43.7333C44.8 47.8507 48.1493 51.2 52.2667 51.2C56.0213 51.2 59.1285 48.4128 59.648 44.8H62.9333C63.5221 44.8 64 44.3221 64 43.7333V30.9333C64 30.6699 63.9616 28.3189 62.6208 26.9792ZM16 49.0667C13.0592 49.0667 10.6667 46.6741 10.6667 43.7333C10.6667 40.7925 13.0592 38.4 16 38.4C18.9408 38.4 21.3333 40.7925 21.3333 43.7333C21.3333 46.6741 18.9408 49.0667 16 49.0667ZM41.6 0H7.46667C4.52587 0 2.13333 2.39253 2.13333 5.33333C2.13333 5.38667 2.1376 5.43893 2.14507 5.4912L3.5616 14.9333H1.06667C0.477867 14.9333 0 15.4112 0 16C0 16.5888 0.477867 17.0667 1.06667 17.0667H16C16.5888 17.0667 17.0667 16.5888 17.0667 16C17.0667 15.4112 16.5888 14.9333 16 14.9333H5.7184L4.26773 5.25973C4.3072 3.5296 5.72693 2.13333 7.46667 2.13333H40.5333V42.6667H23.3813C22.8619 39.0539 19.7547 36.2667 16 36.2667C11.8827 36.2667 8.53333 39.616 8.53333 43.7333C8.53333 47.8507 11.8827 51.2 16 51.2C19.7547 51.2 22.8619 48.4128 23.3813 44.8H41.6C42.1888 44.8 42.6667 44.3221 42.6667 43.7333V1.06667C42.6667 0.477867 42.1888 0 41.6 0Z" fill="black"/>
</svg>
