<svg width="16" height="12" viewBox="0 0 16 12" fill="none" xmlns="http://www.w3.org/2000/svg">
<path d="M5.97663 9.00004C5.89737 9.55624 5.6201 10.0652 5.19574 10.4333C4.77139 10.8015 4.22844 11.0042 3.66663 11.0042C3.10481 11.0042 2.56186 10.8015 2.13751 10.4333C1.71315 10.0652 1.43588 9.55624 1.35663 9.00004H0.666626V1.00004C0.666626 0.82323 0.736864 0.653661 0.861888 0.528636C0.986912 0.403612 1.15648 0.333374 1.33329 0.333374H10.6666C10.8434 0.333374 11.013 0.403612 11.138 0.528636C11.2631 0.653661 11.3333 0.82323 11.3333 1.00004V2.33337H13.3333L15.3333 5.03737V9.00004H13.9766C13.8974 9.55624 13.6201 10.0652 13.1957 10.4333C12.7714 10.8015 12.2284 11.0042 11.6666 11.0042C11.1048 11.0042 10.5619 10.8015 10.1375 10.4333C9.71315 10.0652 9.43588 9.55624 9.35663 9.00004H5.97663ZM9.99996 1.66671H1.99996V7.03337C2.263 6.76484 2.58703 6.56383 2.94446 6.44745C3.3019 6.33108 3.68216 6.30278 4.05288 6.36497C4.4236 6.42716 4.77381 6.578 5.0737 6.80464C5.37359 7.03129 5.61428 7.32703 5.77529 7.66671H9.55796C9.66996 7.43137 9.81996 7.21737 9.99996 7.03337V1.66671ZM11.3333 5.66671H14V5.47671L12.6613 3.66671H11.3333V5.66671ZM11.6666 9.66671C11.9319 9.66671 12.1864 9.56132 12.374 9.37372C12.5616 9.18612 12.667 8.93168 12.667 8.66637C12.667 8.40107 12.5616 8.14663 12.374 7.95903C12.1864 7.77143 11.9319 7.66604 11.6666 7.66604C11.4013 7.66604 11.1469 7.77143 10.9593 7.95903C10.7717 8.14663 10.6663 8.40107 10.6663 8.66637C10.6663 8.93168 10.7717 9.18612 10.9593 9.37372C11.1469 9.56132 11.4013 9.66671 11.6666 9.66671ZM4.66663 8.66671C4.66663 8.53539 4.64076 8.40535 4.59051 8.28402C4.54025 8.1627 4.46659 8.05246 4.37373 7.9596C4.28087 7.86674 4.17063 7.79308 4.04931 7.74283C3.92798 7.69257 3.79795 7.66671 3.66663 7.66671C3.5353 7.66671 3.40527 7.69257 3.28394 7.74283C3.16262 7.79308 3.05238 7.86674 2.95952 7.9596C2.86666 8.05246 2.793 8.1627 2.74275 8.28402C2.69249 8.40535 2.66663 8.53539 2.66663 8.66671C2.66663 8.93192 2.77198 9.18628 2.95952 9.37381C3.14706 9.56135 3.40141 9.66671 3.66663 9.66671C3.93184 9.66671 4.1862 9.56135 4.37373 9.37381C4.56127 9.18628 4.66663 8.93192 4.66663 8.66671Z" fill="white"/>
</svg>
